<?xml version="1.0" encoding="utf-8"?>
<!-- Generator: Adobe Illustrator 17.0.0, SVG Export Plug-In . SVG Version: 6.00 Build 0)  -->
<!DOCTYPE svg PUBLIC "-//W3C//DTD SVG 1.1//EN" "http://www.w3.org/Graphics/SVG/1.1/DTD/svg11.dtd">
<svg version="1.1" id="Layer_1" xmlns="http://www.w3.org/2000/svg" xmlns:xlink="http://www.w3.org/1999/xlink" x="0px" y="0px"
	 width="1000px" height="1000px" viewBox="0 0 1000 1000" enable-background="new 0 0 1000 1000" xml:space="preserve">
<g id="iPhone">
	<g id="body">
		<path fill="#FFFFFF" d="M684,10c27.57,0,50,22.43,50,50v880c0,27.57-22.13,50-49.701,50H327.574C300.004,990,278,967.57,278,940
			V60c0-27.57,22.004-50,49.574-50H684 M684.299,0H327.574C294.574,0,268,27,268,60v880c0,33,26.574,60,59.574,60h356.725
			c33,0,59.701-27,59.701-60V60c0-33-26.85-60-59.85-60H684.299z"/>
	</g>
	
		<rect id="lcd" x="292.5" y="107.5" fill="none" stroke="#FFFFFF" stroke-width="5" stroke-miterlimit="10" width="426" height="758"/>
	<g id="speaker">
		
			<line fill="none" stroke="#FFFFFF" stroke-width="10" stroke-linecap="round" stroke-miterlimit="10" x1="449" y1="63" x2="563" y2="63"/>
		<circle fill="#FFFFFF" cx="405.351" cy="62.229" r="11.374"/>
		<circle fill="#FFFFFF" cx="506.075" cy="29.935" r="6.825"/>
	</g>
	
		<circle id="homeButton" fill="none" stroke="#FFFFFF" stroke-width="5" stroke-miterlimit="10" cx="505.937" cy="931.047" r="39.81"/>
	<g id="buttons">
		<g>
			<path fill="none" stroke="#FFFFFF" stroke-width="5" stroke-miterlimit="10" d="M270,142.5h-6.299
				c-2.75,0-5.201,2.675-5.201,5.425v35.498c0,2.75,2.451,5.077,5.201,5.077H270"/>
		</g>
		<g>
			<path fill="none" stroke="#FFFFFF" stroke-width="5" stroke-miterlimit="10" d="M270,205.5h-6.299
				c-2.75,0-5.201,2.234-5.201,4.984v58.246c0,2.75,2.451,4.769,5.201,4.769H270"/>
		</g>
		<g>
			<path fill="none" stroke="#FFFFFF" stroke-width="5" stroke-miterlimit="10" d="M270,290.5h-6.299
				c-2.75,0-5.201,2.542-5.201,5.292v58.246c0,2.75,2.451,5.462,5.201,5.462H270"/>
		</g>
	</g>
</g>
</svg>
