<?xml version="1.0" encoding="utf-8"?>
<!-- Generator: Adobe Illustrator 17.0.0, SVG Export Plug-In . SVG Version: 6.00 Build 0)  -->
<!DOCTYPE svg PUBLIC "-//W3C//DTD SVG 1.1//EN" "http://www.w3.org/Graphics/SVG/1.1/DTD/svg11.dtd">
<svg version="1.1" id="Layer_1" xmlns="http://www.w3.org/2000/svg" xmlns:xlink="http://www.w3.org/1999/xlink" x="0px" y="0px"
	 width="433px" height="1050px" viewBox="0 0 433 1050" enable-background="new 0 0 433 1050" xml:space="preserve">
<g id="Layer_1_1_">
	<g>
		<g>
			<g>
				<defs>
					<path id="SVGID_1_" d="M350.844,925.625l7.1-7.1c11.6-11.3,14.1-19,11.6-35.6c-1.6-11.2-4.3-17.9-9.5-23.7
						c-5.3-5.9-10.9-8.8-19.9-10.2c-9.1-1.4-14.5,0-20.1,5.5c-8.7,8.4-10.4,14.7-6.4,23.5c2.4,5.2,5.3,8.6,9.2,10.6
						c3.3,1.8,3.4,1.5,0.1-3.3c-2.3-3.3-2.5-4.5-2.1-9.5c0.8-9.4,5.3-15,13.4-16.8c5.4-1.2,9.3,0,16,5.1c7.7,5.8,8.6,8.5,8.1,23.4
						c-0.5,14.6-2.6,20.1-9.9,27c-13.6,12.7-37.1,15.6-63.6,7.9c-17.8-5.1-47.9-24.4-54.1-34.6c-2.6-4.2-4.9-15.4-6.2-29.3
						c-1.1-12-1.4-81.4-0.4-88.8l0.7-4.6l-0.3-18.5v-46.3V0h-11h-10.9l-0.3,688.225l-0.3,34.3l-1,20.6l0.3,43.1
						c0.1,23.7-0.2,60-0.7,80.7l14.65,27.32c5.263,5.145-1.076-1.368,9.224,9.032c18.4,18.7,34.726,23.548,56.926,29.148
						c22.3,5.6,45.5,5.6,57-0.1l5.5-2.6L350.844,925.625z"/>
				</defs>
				<clipPath id="SVGID_2_">
					<use xlink:href="#SVGID_1_"  overflow="visible"/>
				</clipPath>
				<path id="_x31_" clip-path="url(#SVGID_2_)" fill="none" stroke="#FFFFFF" stroke-width="25" stroke-miterlimit="10" d="
					M212.22,0v862.03c0,0,11.97,61.858,90,70.024c28.238,2.955,57.659-7.788,60.588-35.882s-13.621-51.253-39.412-38.897
					c-9.415,4.51-8.605,18.874,1.937,32.27"/>
			</g>
		</g>
	</g>
	<g>
		<g>
			<g>
				<defs>
					<path id="SVGID_3_" d="M156.444,979.425l5.4-1.7c14.6-4.6,30.3-19.9,39.9-39c6.8-13.7,13.55-34.08,13.55-44.48l-14.65-27.32
						c-0.8,34.4-1.1,38.2-3.1,45.1c-7.2,24.3-19.4,42.6-32.7,49.4c-10.8,5.4-37.2,7.5-51.8,4.1c-11-2.5-14.6-5.1-19.3-14.2
						c-6-11.6-7.6-18.1-6.8-27.8c2.4-30,14.8-45.9,37-47.2c11.3-0.8,18.2,1.3,24.7,7.4c6.4,6,8.9,12.5,8.9,23.4
						c0,7.2-0.4,8.8-3.2,14.2c-1.8,3.4-6.7,9.7-10.8,13.9c-4.1,4.3-6.8,7.8-6,7.8c3.1,0,13.7-5.9,17.9-10
						c8.9-8.8,11.7-19.7,8.1-32.6c-2.9-10.6-6.4-16.7-12.9-22.5c-7.4-6.5-12.8-9.1-21-9.7c-17-1.2-38,10.4-44.9,24.8
						c-6.5,13.7-9.8,35.7-7.2,48c2.6,12.2,11.2,22.8,24,29.4c11.8,6.1,29,10.6,40.6,10.6h6.4L156.444,979.425z"/>
				</defs>
				<clipPath id="SVGID_4_">
					<use xlink:href="#SVGID_3_"  overflow="visible"/>
				</clipPath>
				<path id="_x32_" clip-path="url(#SVGID_4_)" fill="none" stroke="#FFFFFF" stroke-width="25" stroke-miterlimit="10" d="
					M215.294,850.29c-2.973,28.989-18.074,123.995-66.75,123.468c-25.735,0.061-52.458,8.014-68.505-52.88
					c-0.76-32.353,32.451-50.78,47.476-49.853s44.706,21.341,30.588,52.95c-11.176,19.256-17.39,14.343-17.39,14.343"/>
			</g>
		</g>
	</g>
	<g>
		<g>
			<g>
				<defs>
					<path id="SVGID_5_" d="M66.421,840.824c1.764-0.288,3.023,0.301,14.223-0.699c17.5-1.5,30.8-4.8,41.7-10.2
						c6.7-3.2,10.5-6.1,18.9-14.2c12.4-12,29.9-32.6,47.3-55.9l12.5-16.7l1-20.6l-7,11c-14.2,22.1-49.1,67.2-59.7,76.9
						c-18.8,17.5-55.4,25.9-82.6,19c-9.3-2.3-21.6-8.9-25.7-13.6c-9.5-11.2-19.5-37.3-19.5-51.3c0-10.9,5-23.4,12.7-31.6
						c14-15,42.7-17.3,66.4-5.3c9.1,4.5,19.4,14.5,23.2,22.4c3.6,7.4,5.2,16.5,3.9,22.5c-1.3,6.2,0.7,5.5,3.1-1.1
						c1.3-3.6,1.6-7.2,1.4-13.5c-0.3-7.8-0.6-9.2-3.8-14.4c-4.3-7.2-16.1-18.3-25-23.6c-11.2-6.7-17.3-8.3-32.4-8.3
						c-11.4,0-14,0.4-21,2.7c-17.6,5.8-27.6,15.3-33.1,31.3c-2.5,7.3-2.8,9.1-2.7,22.9c0,13.6,0.3,15.8,2.7,23
						c9.2,27.2,28.9,46.5,49.4,48.2l7.2,0.6"/>
				</defs>
				<clipPath id="SVGID_6_">
					<use xlink:href="#SVGID_5_"  overflow="visible"/>
				</clipPath>
				<path id="_x34_" clip-path="url(#SVGID_6_)" fill="none" stroke="#FFFFFF" stroke-width="13" stroke-miterlimit="10" d="
					M206.926,726.76c0,0-65.294,85.882-77.059,93.529c-11.765,7.647-79.658,32.353-110.123-4.118
					c-14.905-19.521-33.994-80.587,13.653-96.47c30.588-10.588,74.897,5.924,79.172,28.824c4.275,22.9,4.999,13.971,1.121,28.259"/>
			</g>
		</g>
	</g>
	<g>
		<g>
			<g>
				<defs>
					<path id="SVGID_7_" d="M71.023,868.628c3.8,3.5,10.021,6.397,15.621,5.397c6.4-1.2,9.4-3.1,11.9-7.3c2.9-4.7,2.6-9.8-0.7-13.1
						c-4.3-4.4-11.1-4.7-13.2-0.7c-0.9,1.7-0.7,1.7,2.8,0.8c3.2-0.9,4.4-0.8,6.5,0.6c4,2.7,3.5,7-1.3,11.8
						c-4.6,4.6-8.9,5.1-15.9,1.8c-5-2.5-5.3-3.2-7.6-15.1c-0.9-4.8-2.423-11.201-2.723-12.001l-6.877-0.499l2.3,7.1
						c1.5,4.9,2.2,9.6,2.2,15.1L71.023,868.628z"/>
				</defs>
				<clipPath id="SVGID_8_">
					<use xlink:href="#SVGID_7_"  overflow="visible"/>
				</clipPath>
				
					<path id="_x39_" clip-path="url(#SVGID_8_)" fill="none" stroke="#FFFFFF" stroke-width="9" stroke-linecap="round" stroke-miterlimit="10" d="
					M62.466,837.451c0,0,3.384,20.194,7.222,27.819c1.204,1.872,23.94,18.189,28.621-6.821c0.802-6.019-11.357-9.174-14.105-4.52"/>
			</g>
		</g>
	</g>
	<g>
		<g>
			<g>
				<defs>
					<path id="SVGID_9_" d="M64.044,862.525c0,6.9-0.4,8.8-3,14c-3.5,7-7,9.4-14.9,10.2c-8.3,0.9-14.5-0.4-17.8-3.7
						c-2.4-2.4-2.8-3.6-2.8-8.4c0-7,2.3-9,10-8.4c5.5,0.3,5.9,0,3.2-2.5c-2.1-1.9-10.2-2.3-13.3-0.7c-1,0.6-2.8,2.9-4,5.2
						c-2.8,5.5-2.1,12.3,1.8,17.8c4.1,5.8,8.2,7.4,18.3,7.4c8.8,0,11.7-0.9,18.3-5.8c3.1-2.2,8.7-10.2,8.7-12.2c0-0.7,0.5-2.5,1-4
						c1.176-1.888,0.68-1.226,1.479-2.797L64.044,862.525z"/>
				</defs>
				<clipPath id="SVGID_10_">
					<use xlink:href="#SVGID_9_"  overflow="visible"/>
				</clipPath>
				
					<path id="_x31_0" clip-path="url(#SVGID_10_)" fill="none" stroke="#FFFFFF" stroke-width="9" stroke-linecap="round" stroke-miterlimit="10" d="
					M68.618,860.723c0,0-2.289,21.434-11.235,26.883c-8.946,5.448-27.953,2.541-33.436-4.815c-5.484-7.356-1.471-17.654,3.21-18.189
					c0,0,8.915-1.693,13.084,0.759"/>
			</g>
		</g>
	</g>
	<g>
		<g>
			<g>
				<defs>
					<path id="SVGID_11_" d="M347.744,765.525l8.3-8.6c10.1-10.5,13.1-15,15.1-23.2c1.8-6.9,1.5-20.1-0.6-29.5
						c-4.8-21.6-38.9-32.8-57.2-18.9c-2.9,2.2-5.4,5.5-7.8,10c-3.1,6.2-3.4,7.6-3.4,15c0.1,9.4,2,14.3,8,20.1
						c6.4,6.2,11.6,8.1,22.4,8.1c8.3,0,10.1-0.3,14-2.5c5.7-3.1,8.8-9.1,9.6-18.1c0.7-8-1.2-12-8-16.7c-8.8-5.9-17.2-3.6-21,5.9
						c-2.3,5.8-0.9,9.4,5.6,14.1l2.7,1.9l-1.4-3.5c-5.1-12.1,4.4-20.9,13.1-12.2c4,4,4.5,8.7,1.5,15.1c-3.1,6.8-5.2,8-14.1,8
						c-10.9-0.1-16.4-3-20.2-10.5c-2.1-4-2.8-6.8-2.8-11c0-7.8,3.5-12.7,12.4-17c6-3,7.2-3.2,13.6-2.8c10.1,0.8,19.1,5.3,21.9,11.1
						c3.2,6.8,3.6,14.7,1.1,26.2c-4.3,19.6-9.9,27-26.5,35.1c-13.4,6.5-19.5,7.6-43.5,7.7c-20.1,0.2-20.8,0.1-33.5-3.1
						c-17.2-4.3-23.9-7.7-28.7-14.4l-3.8-5.2l0.3,18.5l3.6,2.9c5.4,4.4,18,9.8,28.2,12.2c7.4,1.7,7.556,2.019,8.46,3.082l4.04,0.218
						l19-0.6c18.7-0.7,25-1.5,49.9-7L347.744,765.525z"/>
				</defs>
				<clipPath id="SVGID_12_">
					<use xlink:href="#SVGID_11_"  overflow="visible"/>
				</clipPath>
				
					<path id="_x33_" clip-path="url(#SVGID_12_)" fill="none" stroke="#FFFFFF" stroke-width="22" stroke-linecap="round" stroke-miterlimit="10" d="
					M215.676,748.697c13.617,14.887,55.189,44.695,129.993,13.435c21.786-12.527,37.945-66.63,0-77.16
					c-21.733-4.66-54.103,15.432-31.046,43.21c12.887,10.169,40.123,9.441,38.853-10.349c-0.908-11.075-12.076-23.022-21.605-13.253
					c-5.644,5.786,0.793,15.123,3.574,18.546"/>
			</g>
		</g>
	</g>
	<g>
		<g>
			<g>
				<defs>
					<path id="SVGID_13_" d="M338.044,775.925c7.6-1.7,13.3-2.2,23.5-2.2c15.1,0,23.5,1.5,35.7,6.3c11.3,4.3,17.6,9.1,20.2,14.9
						c6.1,14.2,5.4,28.8-1.7,35.8c-4.8,4.8-14.1,9-23.7,10.6l-8,1.4l6,1.3c9.3,2,21.2,1,26.7-2.3c4.7-2.7,10.4-10.2,13.4-17.4
						c3.9-9.2,3.4-21.3-1.1-30.3c-5.6-11.1-19.2-22.3-31.9-26.3c-6.4-2-9.2-2.2-28.3-2.2h-21.1L338.044,775.925z"/>
				</defs>
				<clipPath id="SVGID_14_">
					<use xlink:href="#SVGID_13_"  overflow="visible"/>
				</clipPath>
				
					<path id="_x35_" clip-path="url(#SVGID_14_)" fill="none" stroke="#FFFFFF" stroke-width="22" stroke-linecap="round" stroke-miterlimit="10" d="
					M320.976,770.661c30.321,0.549,103.124-8.166,106.755,37.768c3.631,45.933-43.687,34.296-43.687,34.296"/>
			</g>
		</g>
	</g>
	<g>
		<g>
			<g>
				<defs>
					<path id="SVGID_15_" d="M265.104,783.307c-1.7,4.1-1.76,13.818-0.16,18.118c2.1,5.5,4.4,7.5,9.6,8.7c6,1.4,11.1-0.3,15.4-5.1
						c4-4.5,4.3-6.2,2-11.9c-2.7-6.7-10.6-9-17-5c-5.2,3.2-5.8,9.5-1.4,13.9c2.5,2.5,5.1,2.5,8.1,0.1c2-1.6,2.2-2.3,1.4-4.7
						c-0.7-2-1.9-3-3.5-3.3c-2.5-0.3-2.5-0.3-0.6,1.8c1.8,2,1.8,2.3,0.3,3.8c-2.1,2.2-4.7,0.2-4.7-3.7c0-5.9,7.9-8.2,12.5-3.5
						c4.7,4.6,1.8,11.5-5.6,13.5c-5.5,1.5-10.2-0.1-12.9-4.4c-2.3-3.9-2.5-6.2-0.7-13.1l1.3-5L265.104,783.307z"/>
				</defs>
				<clipPath id="SVGID_16_">
					<use xlink:href="#SVGID_15_"  overflow="visible"/>
				</clipPath>
				
					<path id="_x31_2" clip-path="url(#SVGID_16_)" fill="none" stroke="#FFFFFF" stroke-width="6" stroke-linecap="round" stroke-miterlimit="10" d="
					M267.978,779.759c-0.619,3.008-11.589,34.326,16.632,27.514c5.397-1.415,8.051-7.989,7.166-10.32s-7.697-14.451-18.844-5.073
					c-2.214,2.194,0.981,9.848,3.981,10.616s4.574-0.863,5.043-3.627s-2.252-4.076-4.134-4.869"/>
			</g>
		</g>
	</g>
	<g>
		<g>
			<g>
				<defs>
					<path id="SVGID_17_" d="M370.144,954.225c-2.5-9.1-6.4-15.7-13.1-22.4l-6.2-6.2l-6.9,4.1l6.6,7c14.2,15.2,19,32,14.2,49.4
						c-3.6,12.8-11.2,21.9-21.8,25.9c-11.4,4.3-26.1,1.4-31.8-6.3c-1.7-2.3-2.1-4.3-2.1-10.2c0-12.3,4.6-15.8,18.5-13.9
						c8.3,1.1,8,0-1.1-4.1c-8.6-3.8-15.5-3.3-20.4,1.5c-4,3.8-7.5,12.3-7.5,17.8c0,5.1,3.9,13.1,8.4,17c6.8,5.9,11.2,7.5,21.7,8
						c20.4,0.9,35.1-7.5,43.3-24.8c2.7-5.7,3.1-7.8,3.4-16.8l0.4-10.2L370.144,954.225z"/>
				</defs>
				<clipPath id="SVGID_18_">
					<use xlink:href="#SVGID_17_"  overflow="visible"/>
				</clipPath>
				<path id="_x36_" clip-path="url(#SVGID_18_)" fill="none" stroke="#FFFFFF" stroke-width="15" stroke-miterlimit="10" d="
					M344.461,924.387c10.056,8.89,37.397,45.378,25.683,67.462c-11.714,22.084-27.739,30.138-45.47,26.057
					c0,0-16.035-0.891-21.157-21.157c-3.341-13.362,6.904-17.594,10.245-18.485s19.649,3.539,19.649,3.539"/>
			</g>
		</g>
	</g>
	<g>
		<g>
			<g>
				<defs>
					<path id="SVGID_19_" d="M375.744,970.025l3.6-3c5.5-4.5,12.2-6.4,20.7-5.7c17.5,1.3,22.7,6.2,22.9,21.6c0,4.4-0.4,5.7-2.3,7.2
						c-1.3,1.1-3.4,1.9-4.7,1.9c-3.5,0-9-2.5-11.9-5.4c-2.5-2.5-2.5-2.5-2.5-0.3c0,3.5,3.5,8.2,7.5,10.1c6.9,3.3,14.3,0.8,19.3-6.5
						c2.1-2.9,2.3-4.2,1.8-9.2c-0.3-3.2-1.5-8-2.7-10.7c-2.4-5.5-9.2-12.4-14.4-14.6c-7.4-3-23.6-0.8-33.2,4.6
						c-6.3,3.6-7.4,3-9.7-5.8L375.744,970.025z"/>
				</defs>
				<clipPath id="SVGID_20_">
					<use xlink:href="#SVGID_19_"  overflow="visible"/>
				</clipPath>
				<path id="_x31_1" clip-path="url(#SVGID_20_)" fill="none" stroke="#FFFFFF" stroke-width="11" stroke-miterlimit="10" d="
					M371.332,967.947c18.197-9.349,45.868-21.537,56.457,11.829c3.097,10.19-15.767,25.527-26.115,5.021"/>
			</g>
		</g>
	</g>
	<g>
		<g>
			<g>
				<defs>
					<path id="SVGID_21_" d="M161.544,1016.725l3.9,6c9.4,14.6,31.9,22.8,47.5,17.4c16.1-5.7,23.8-15.8,25.3-33.2
						c0.8-8.9-1.5-16.2-6.8-22.3c-8.2-9.3-16.8-12-30.8-9.6c-8.5,1.4-12.2,4.1-16.5,12c-7.8,14.2-7.1,26.7,1.7,33.4
						c4.6,3.5,11.6,6.6,15.2,6.6c6.2,0,14.5-7,16.1-13.7c1.8-6.9-3-14.3-9.3-14.3c-3.1,0-12.3,3.2-12.3,4.2c0,0.2,2.2,0.1,4.9,0
						c3.9-0.3,5.3,0,7,1.7c2.8,2.8,2.6,6.3-0.5,10c-4.8,5.7-12,4.9-17.8-1.9c-5.3-6.3-2.2-20.8,6-27.9c2.9-2.6,4.3-3.1,8.4-3.1
						c9.6,0,21.7,6.7,25.6,14.1c2,4,1.7,11.9-0.7,18.3c-3.9,10.5-15.2,17.4-29.9,18.3c-7,0.5-7.8,0.3-11.7-2.4
						c-7.1-4.8-20.2-17.2-22.8-21.6c-2.2-3.9-5.5-15.5-7-25.3l-0.6-4l-7.9,1.6v3.4c0,1.9,1.8,8.7,4,15.2L161.544,1016.725z"/>
				</defs>
				<clipPath id="SVGID_22_">
					<use xlink:href="#SVGID_21_"  overflow="visible"/>
				</clipPath>
				<path id="_x37_" clip-path="url(#SVGID_22_)" fill="none" stroke="#FFFFFF" stroke-width="14" stroke-miterlimit="10" d="
					M151.972,973.634c0.833,8.404,9.525,68.61,48.672,64.114s35.823-38.117,30.937-46.913c-4.887-8.796-31.549-20.03-41.245-8.014
					c-9.695,12.015-12.326,43.228,12.119,39.07c13.879-2.516,11.533-13.222,9.187-16.079c-2.346-2.857-4.09-7.262-16.098-2.586"/>
			</g>
		</g>
	</g>
	<g>
		<g>
			<g>
				<defs>
					<path id="SVGID_23_" d="M152.544,999.625c4.4,13,4.9,18.1,2.4,26.5c-2.5,8.6-5.8,13.4-10.7,15.8c-9.1,4.4-18.7,1.5-23.7-7.3
						c-4-6.9-3.9-9.8,0.8-14.7c3.1-3.3,4.6-4.2,8.2-4.6c5.9-0.6,10.9,2,13.3,6.9c1.6,3.3,1.6,4,0.3,7.1c-1.5,3.7-4.3,5.2-7.7,4.2
						c-1.5-0.5-1.9-1.4-1.7-3.3c0.2-2.1,1.1-3,3.7-3.8c3.3-1.1,3.4-1.2,1.4-2.3c-2.4-1.3-6.3-1.4-7.9-0.3c-1.8,1.2-3.4,4.9-3.4,8
						c0,4.3,4.9,8.2,10.1,8.2c2.8,0,4.7-0.7,7.1-2.9c2.7-2.4,3.2-3.6,3.6-8.7c0.9-12.1-4.5-17.3-17.8-17.4c-8.5,0-12.7,2.2-15.7,8
						c-2.5,4.8-3,11.8-1.2,15.3c3,5.9,9.2,12.6,13,14.1c5.2,2.1,15.1,2.1,19.5,0c7.4-3.5,15.4-17.1,15.4-26.2v-5.5L152.544,999.625z
						"/>
				</defs>
				<clipPath id="SVGID_24_">
					<use xlink:href="#SVGID_23_"  overflow="visible"/>
				</clipPath>
				<path id="_x38_" clip-path="url(#SVGID_24_)" fill="none" stroke="#FFFFFF" stroke-width="10" stroke-miterlimit="10" d="
					M157.403,998.755c2.44,14.736-0.883,48.181-18.085,48.376c-17.202,0.195-23.652-8.67-24.043-22.319
					c-0.391-13.648,15.833-11.889,17.397-11.498s25.3,7.101,9.383,21.502c-4.105,3.714-11.044,0.478-12.51-2.932
					c-1.466-3.41,1.976-6.526,10.409-7.072"/>
			</g>
		</g>
	</g>
</g>
</svg>
